[Header]
FileType HTR
DataType HTRS
FileVersion 1
NumSegments 22
NumFrames 5
DataFrameRate 24
EulerRotationOrder ZYX
CalibrationUnits mm
RotationUnits Degrees
GlobalAxisofGravity Y
BoneLengthAxis Y
ScaleFactor 1.0
[SegmentNames&Hierarchy]
reference	GLOBAL
Hips	reference
Spine	Hips
Spine1	Spine
Neck	Spine1
Head	Neck
LeftShoulder	Spine1
LeftArm	LeftShoulder
LeftForeArm	LeftArm
LeftHand	LeftForeArm
RightShoulder	Spine1
RightArm	RightShoulder
RightForeArm	RightArm
RightHand	RightForeArm
LeftUpLeg	Hips
LeftLeg	LeftUpLeg
LeftFoot	LeftLeg
LeftToeBase	LeftFoot
RightUpLeg	Hips
RightLeg	RightUpLeg
RightFoot	RightLeg
RightToeBase	RightFoot
[BasePosition]
reference	0	0	0	0	0	0	1
Hips	0	0	0	0	0	0	1
Spine	0	0	0	0	-0	90	1
Spine1	0	0	0	0	0	0	1
Neck	0	0	0	-7.352430803	-7.352430803	90	1
Head	0	0	0	0	-0	90	1
LeftShoulder	0	0	0	0	0	0	1
LeftArm	0	0	0	0	0	0	1
LeftForeArm	0	0	0	0	0	0	1
LeftHand	0	0	0	0	0	0	1
RightShoulder	0	0	0	0	-0	180	1
RightArm	0	0	0	0	-0	180	1
RightForeArm	0	0	0	0	-0	180	1
RightHand	0	0	0	0	-0	180	1
LeftUpLeg	0	0	0	0	-0	-90	1
LeftLeg	0	0	0	0	-0	-90	1
LeftFoot	0	0	0	66.57150701	-66.57150701	-90	1
LeftToeBase	0	0	0	0	-90	0	1
RightUpLeg	0	0	0	0	-0	-90	1
RightLeg	0	0	0	0	-0	-90	1
RightFoot	0	0	0	66.57150701	-66.57150701	-90	1
RightToeBase	0	0	0	0	-90	0	1
[reference]
29	0	0	0	0	-0	0	1.0
30	0	0	0	0	-0	0	1.0
31	0	0	0	0	-0	0	1.0
32	0	0	0	0	-0	0	1.0
33	0	0	0	0	-0	0	1.0
[Hips]
29	2.045218945	7.906041145	1.678816319	-245.153244	-87.95230103	241.5358276	1.0
30	1.492805243	7.776221752	1.904238343	-294.778717	-86.84767151	292.930603	1.0
31	0.9326899648	7.735943317	2.15963006	-326.0781555	-83.92476654	325.9606323	1.0
32	0.4816756248	7.730770588	2.390408516	-340.9042053	-80.23549652	341.3304443	1.0
33	0.2143407464	7.802921295	2.559157848	-344.5473938	-76.45547485	342.7824097	1.0
[Spine]
29	0	0.7478299737	0	-12.41140366	8.38217926	-88.53443146	1.0
30	0	0.7478299737	0	-13.13115406	9.165434837	-88.34604645	1.0
31	0	0.7478299737	0	-12.96095848	9.167120934	-88.90692139	1.0
32	0	0.7478299737	0	-11.20450592	8.284498215	-89.54702759	1.0
33	0	0.7478299737	0	-7.732791424	5.213391304	-89.92834473	1.0
[Spine1]
29	0	2.049309969	0	4.512620926	2.69054389	1.234439611	1.0
30	0	2.049309969	0	0.6968122125	2.944867849	0.8387137651	1.0
31	0	2.049309969	0	-4.071884632	2.941147089	0.03466242179	1.0
32	0	2.049309969	0	-4.642483711	2.771408558	-1.204799056	1.0
33	0	2.049309969	0	-3.636650801	1.764301419	0.8639882207	1.0
[Neck]
29	0	2.231709957	0	10.66704559	11.67254448	-91.44567871	1.0
30	0	2.231709957	0	10.50556755	10.57401657	-90.85731506	1.0
31	0	2.231709957	0	9.198606491	8.877533913	-89.94915771	1.0
32	0	2.231709957	0	5.111663342	7.235450268	-89.43955994	1.0
33	0	2.231709957	0	5.398225307	7.210114479	-88.47966003	1.0
[Head]
29	0	1.413589954	0.1823999882	-7.686812878	3.97202611	-87.75984955	1.0
30	0	1.413589954	0.1823999882	-5.361542225	2.880978584	-87.11527252	1.0
31	0	1.413589954	0.1823999882	-3.510446787	1.212453246	-86.52668762	1.0
32	0	1.413589954	0.1823999882	-1.255686283	-0.5712609291	-85.67097473	1.0
33	0	1.413589954	0.1823999882	-2.533311129	-0.2998028994	-86.9464035	1.0
[LeftShoulder]
29	0.3649300039	1.825889945	-0.04271000251	-13.9652338	-6.473534107	4.572606087	1.0
30	0.3649300039	1.825889945	-0.04271000251	-13.55542946	-6.967201233	6.798285961	1.0
31	0.3649300039	1.825889945	-0.04271000251	-15.04333687	-8.27381134	9.051322937	1.0
32	0.3649300039	1.825889945	-0.04271000251	-16.97863388	-10.17314911	11.18780708	1.0
33	0.3649300039	1.825889945	-0.04271000251	-17.91152573	-14.28260899	11.18297577	1.0
[LeftArm]
29	1.24003005	0	0	38.31563187	-18.53683662	-65.28024292	1.0
30	1.24003005	0	0	39.58419418	-28.91617203	-65.01985931	1.0
31	1.24003005	0	0	44.33897781	-37.07283401	-65.44101715	1.0
32	1.24003005	0	0	44.3707962	-43.37136078	-66.03096008	1.0
33	1.24003005	0	0	44.31438065	-41.08626175	-66.84568024	1.0
[LeftForeArm]
29	2.847419977	0	0	-56.30160141	-51.55911636	68.10688782	1.0
30	2.847419977	0	0	-57.61914063	-49.15027237	70.37259674	1.0
31	2.847419977	0	0	-54.991745	-43.76641464	69.67047119	1.0
32	2.847419977	0	0	-52.93375778	-41.03199768	68.56890869	1.0
33	2.847419977	0	0	-53.84439087	-36.10757065	69.22987366	1.0
[LeftHand]
29	2.258270025	0	0	-20.61715508	-5.884527683	9.145165443	1.0
30	2.258270025	0	0	-22.14034843	-5.198259354	5.907838821	1.0
31	2.258270025	0	0	-23.97541809	-3.798803329	6.713407993	1.0
32	2.258270025	0	0	-24.47927856	-3.28316164	6.064324379	1.0
33	2.258270025	0	0	-28.61775398	-2.530454397	6.320277691	1.0
[RightShoulder]
29	-0.3646599948	1.825889945	-0.04271000251	-13.92467308	16.35588837	-184.8234558	1.0
30	-0.3646599948	1.825889945	-0.04271000251	-14.81541157	17.08228302	-186.5461884	1.0
31	-0.3646599948	1.825889945	-0.04271000251	-16.66660118	17.10002327	-189.0407715	1.0
32	-0.3646599948	1.825889945	-0.04271000251	-16.14941406	15.78811264	-190.7180939	1.0
33	-0.3646599948	1.825889945	-0.04271000251	-15.25728035	15.02420712	-189.594696	1.0
[RightArm]
29	-1.24003005	0	0	45.96475601	20.50148392	-111.9313354	1.0
30	-1.24003005	0	0	44.46363068	25.66161728	-115.3327866	1.0
31	-1.24003005	0	0	40.35499573	28.34196663	-119.6893768	1.0
32	-1.24003005	0	0	36.36152649	31.72623444	-124.843483	1.0
33	-1.24003005	0	0	36.60374832	30.63071442	-125.258316	1.0
[RightForeArm]
29	-2.847419977	0	0	-31.62531662	39.16585159	121.5392532	1.0
30	-2.847419977	0	0	-34.29362106	36.96839142	115.7454529	1.0
31	-2.847419977	0	0	-36.69160843	36.7664032	112.3577194	1.0
32	-2.847419977	0	0	-35.71923828	35.98078918	112.1823807	1.0
33	-2.847419977	0	0	-33.22092438	32.59609222	119.2421265	1.0
[RightHand]
29	-2.258270025	0	0	-9.920342445	5.380948544	163.0055695	1.0
30	-2.258270025	0	0	-11.0818634	4.069750786	165.9437256	1.0
31	-2.258270025	0	0	-11.98593903	3.950796127	168.3378906	1.0
32	-2.258270025	0	0	-11.33909607	2.292329311	168.9847565	1.0
33	-2.258270025	0	0	-14.08743286	4.040402889	171.1830139	1.0
[LeftUpLeg]
29	0.9119900465	0	0	-28.08573341	-0.8783960938	109.3523254	1.0
30	0.9119900465	0	0	-31.00606155	-3.970791101	113.0870438	1.0
31	0.9119900465	0	0	-37.82505798	-5.146460533	114.2652969	1.0
32	0.9119900465	0	0	-39.595047	-4.232328892	108.8823166	1.0
33	0.9119900465	0	0	-36.06702423	-0.4026318789	100.4736481	1.0
[LeftLeg]
29	0	-4.371409893	0	19.10900879	14.55714035	72.65428162	1.0
30	0	-4.371409893	0	21.73759842	16.15792084	64.83358765	1.0
31	0	-4.371409893	0	33.79076004	10.6656971	55.6671524	1.0
32	0	-4.371409893	0	42.94972992	9.852473259	57.58680725	1.0
33	0	-4.371409893	0	48.82839584	4.908737183	67.69287109	1.0
[LeftFoot]
29	0	-3.918009996	0	-67.97203827	114.6761551	-23.46765137	1.0
30	0	-3.918009996	0	-79.50601196	124.2031555	-37.38989258	1.0
31	0	-3.918009996	0	-74.66415405	128.5232544	-24.45202065	1.0
32	0	-3.918009996	0	-82.88178253	127.6356049	-29.22529984	1.0
33	0	-3.918009996	0	-94.24829865	122.7454987	-41.27044678	1.0
[LeftToeBase]
29	0	-0.5927900076	1.367989898	0	0	0	1.0
30	0	-0.5927900076	1.367989898	0	0	0	1.0
31	0	-0.5927900076	1.367989898	0	0	0	1.0
32	0	-0.5927900076	1.367989898	0	0	0	1.0
33	0	-0.5927900076	1.367989898	0	0	0	1.0
[RightUpLeg]
29	-0.9119900465	0	0	34.81573486	-17.88201332	78.22772217	1.0
30	-0.9119900465	0	0	38.52274323	-20.38131905	74.68679047	1.0
31	-0.9119900465	0	0	40.06321716	-22.22071457	72.85076141	1.0
32	-0.9119900465	0	0	33.68556976	-22.81102943	76.99403381	1.0
33	-0.9119900465	0	0	17.85523415	-21.78186035	86.37468719	1.0
[RightLeg]
29	0	-4.371409893	0	6.187182426	-0.19915618	85.72480774	1.0
30	0	-4.371409893	0	4.949425697	-0.80043751	85.30177307	1.0
31	0	-4.371409893	0	6.780906677	-1.665362716	83.18759155	1.0
32	0	-4.371409893	0	21.0004673	1.071069241	75.18753052	1.0
33	0	-4.371409893	0	50.1721344	8.450283051	67.72840881	1.0
[RightFoot]
29	0	-3.918009996	0	66.64779663	50.040905	117.6313324	1.0
30	0	-3.918009996	0	78.68679047	44.74061584	120.9339905	1.0
31	0	-3.918009996	0	91.11971283	40.37317657	123.3798523	1.0
32	0	-3.918009996	0	93.3575592	40.31618881	123.9577332	1.0
33	0	-3.918009996	0	76.91674805	42.88288498	117.0657501	1.0
[RightToeBase]
29	0	-0.5927900076	1.367989898	0	0	0	1.0
30	0	-0.5927900076	1.367989898	0	0	0	1.0
31	0	-0.5927900076	1.367989898	0	0	0	1.0
32	0	-0.5927900076	1.367989898	0	0	0	1.0
33	0	-0.5927900076	1.367989898	0	0	0	1.0
[EndOfFile]
